0
SECTION
2
HEADER
9
$INSUNITS
70
4
9
$ACADVER
1
AC1014
9
$HANDSEED
5
FFFF
0
ENDSEC
0
SECTION
2
TABLES
0
TABLE
2
VPORT
5
8
100
AcDbSymbolTable
0
ENDTAB
0
TABLE
2
LTYPE
5
5
100
AcDbSymbolTable
0
LTYPE
5
14
100
AcDbSymbolTableRecord
100
AcDbLinetypeTableRecord
2
BYBLOCK
70
0
0
LTYPE
5
15
100
AcDbSymbolTableRecord
100
AcDbLinetypeTableRecord
2
BYLAYER
70
0
0
ENDTAB
0
TABLE
2
LAYER
5
2
100
AcDbSymbolTable
70
2
0
LAYER
5
50
100
AcDbSymbolTableRecord
100
AcDbLayerTableRecord
2
0
70
0
6
CONTINUOUS
0
ENDTAB
0
TABLE
2
STYLE
5
3
100
AcDbSymbolTable
70
1
0
STYLE
5
11
100
AcDbSymbolTableRecord
100
AcDbTextStyleTableRecord
2
STANDARD
70
0
0
ENDTAB
0
TABLE
2
VIEW
5
6
100
AcDbSymbolTable
70
0
0
ENDTAB
0
TABLE
2
UCS
5
7
100
AcDbSymbolTable
70
0
0
ENDTAB
0
TABLE
2
APPID
5
9
100
AcDbSymbolTable
70
2
0
APPID
5
12
100
AcDbSymbolTableRecord
100
AcDbRegAppTableRecord
2
ACAD
70
0
0
ENDTAB
0
TABLE
2
DIMSTYLE
5
A
100
AcDbSymbolTable
70
1
0
ENDTAB
0
TABLE
2
BLOCK_RECORD
5
1
100
AcDbSymbolTable
70
1
0
BLOCK_RECORD
5
1F
100
AcDbSymbolTableRecord
100
AcDbBlockTableRecord
2
*MODEL_SPACE
0
BLOCK_RECORD
5
1B
100
AcDbSymbolTableRecord
100
AcDbBlockTableRecord
2
*PAPER_SPACE
0
ENDTAB
0
ENDSEC
0
SECTION
2
BLOCKS
0
BLOCK
5
20
100
AcDbEntity
100
AcDbBlockBegin
2
*MODEL_SPACE
0
ENDBLK
5
21
100
AcDbEntity
100
AcDbBlockEnd
0
BLOCK
5
1C
100
AcDbEntity
100
AcDbBlockBegin
2
*PAPER_SPACE
0
ENDBLK
5
1D
100
AcDbEntity
100
AcDbBlockEnd
0
ENDSEC
0
SECTION
2
ENTITIES
0
LWPOLYLINE
5
100
100
AcDbEntity
8
0
100
AcDbPolyline
90
104
70
1
43
0.0
10
-328.66691600000001
20
49.608866999999996
10
-328.04148900000001
20
49.549748000000008
10
-327.41358400000001
20
49.530000000000001
10
-59.913583999999993
20
49.530000000000001
10
-59.285677999999997
20
49.549732000000006
10
-58.660251000000009
20
49.608851000000001
10
-58.039769999999997
20
49.707125000000005
10
-57.426682999999997
20
49.844166000000001
10
-56.823411999999998
20
50.019432000000002
10
-56.232335999999997
20
50.232230999999999
10
-55.655788000000008
20
50.481724999999997
10
-55.096044000000006
20
50.766929000000005
10
-54.555312000000001
20
51.08671600000001
10
-54.035727000000009
20
51.439826000000004
10
-53.539339000000005
20
51.824863000000008
10
-53.068108000000009
20
52.240309000000011
10
-52.623892000000005
20
52.684525000000008
10
-52.208446000000002
20
53.155755999999997
10
-51.823408000000001
20
53.652144
10
-51.470298
20
54.171729000000006
10
-51.150511000000009
20
54.712460000000007
10
-50.865307000000008
20
55.272204000000009
10
-50.615813000000003
20
55.848751999999998
10
-50.403013000000001
20
56.439827999999999
10
-50.227747000000001
20
57.043100000000003
10
-50.090706000000004
20
57.656185999999998
10
-49.992432000000008
20
58.27666700000001
10
-49.933312000000001
20
58.902093999999998
10
-49.913584
20
59.530000000000001
10
-49.913584
20
171.93000000000001
10
-49.933317000000002
20
172.557906
10
-49.99243700000001
20
173.18333300000003
10
-50.090710999999999
20
173.80381400000002
10
-50.22775200000001
20
174.4169
10
-50.403019
20
175.020172
10
-50.615819000000002
20
175.61124799999999
10
-50.865313000000008
20
176.18779599999999
10
-51.150517000000008
20
176.74754000000001
10
-51.470303999999999
20
177.28827200000001
10
-51.823413000000009
20
177.80785700000001
10
-52.208450999999997
20
178.30424500000004
10
-52.623896999999999
20
178.775476
10
-53.068111999999999
20
179.21969200000004
10
-53.539343000000002
20
179.63513900000004
10
-54.035730000000008
20
180.02017699999999
10
-54.555315
20
180.373287
10
-55.096046000000001
20
180.69307599999999
10
-55.655790000000003
20
180.97828000000004
10
-56.232337000000001
20
181.22777500000001
10
-56.823413000000009
20
181.44057599999999
10
-57.426684000000002
20
181.61584400000004
10
-58.039769999999997
20
181.75288599999999
10
-58.660251000000009
20
181.85116099999999
10
-59.285677999999997
20
181.91028200000002
10
-59.913584
20
181.93000000000001
10
-327.41358400000001
20
181.93000000000001
10
-328.04149000000001
20
181.910268
10
-328.66691800000007
20
181.85114899999999
10
-329.28739900000005
20
181.75287499999999
10
-329.900486
20
181.61583500000003
10
-330.50375800000006
20
181.44056900000004
10
-331.09483399999999
20
181.22776900000002
10
-331.67138200000005
20
180.978275
10
-332.23112700000001
20
180.693072
10
-332.77185900000001
20
180.37328500000001
10
-333.29144500000007
20
180.02017599999999
10
-333.78783300000003
20
179.63513800000001
10
-334.25906500000002
20
179.21969200000004
10
-334.70328100000006
20
178.77547700000002
10
-335.11872799999998
20
178.30424500000004
10
-335.50376599999998
20
177.80785800000001
10
-335.856876
20
177.28827300000003
10
-336.17666400000007
20
176.74754100000001
10
-336.46186899999998
20
176.18779700000002
10
-336.71136300000001
20
175.61124899999999
10
-336.92416400000008
20
175.02017300000003
10
-337.09943099999998
20
174.416901
10
-337.23647200000005
20
173.80381499999999
10
-337.33474699999999
20
173.183334
10
-337.39386700000006
20
172.557906
10
-337.41358400000001
20
171.93000000000001
10
-337.41358400000001
20
59.529999999999994
10
-337.39385099999998
20
58.90209500000001
10
-337.33473099999998
20
58.276668000000001
10
-337.23645599999998
20
57.656188
10
-337.09941500000008
20
57.043103000000002
10
-336.92414900000006
20
56.43983200000001
10
-336.71134899999998
20
55.848757000000006
10
-336.46185400000002
20
55.272210000000008
10
-336.17665
20
54.712466000000006
10
-335.85686299999998
20
54.17173600000001
10
-335.50375300000007
20
53.652152000000008
10
-335.11871600000001
20
53.155765000000002
10
-334.70326899999998
20
52.684533999999999
10
-334.25905399999999
20
52.240320000000004
10
-333.78782300000006
20
51.824874000000001
10
-333.29143499999998
20
51.439836999999997
10
-332.77185100000003
20
51.086729000000005
10
-332.23111899999998
20
50.766942
10
-331.67137600000001
20
50.481739000000005
10
-331.09482800000001
20
50.232246000000004
10
-330.50375300000007
20
50.019446000000009
10
-329.90048200000001
20
49.844180999999999
10
-329.287396
20
49.707141000000007
0
LWPOLYLINE
5
101
100
AcDbEntity
8
0
100
AcDbPolyline
90
18
70
1
43
0.0
10
-197.48611400000001
20
54.589329000000006
10
-197.54030700000001
20
54.508223000000001
10
-197.62141299999999
20
54.454030000000003
10
-197.717084
20
54.435000000000002
10
-197.81275500000004
20
54.454030000000003
10
-197.89386100000002
20
54.508223000000001
10
-197.94805400000001
20
54.589329000000006
10
-197.967084
20
54.685000000000002
10
-197.967084
20
55.285000000000004
10
-197.94805400000001
20
55.380671
10
-197.89386100000002
20
55.461777000000005
10
-197.81275500000004
20
55.51597000000001
10
-197.717084
20
55.534999999999997
10
-197.62141299999999
20
55.51597000000001
10
-197.54030700000001
20
55.461777000000005
10
-197.48611400000001
20
55.380671
10
-197.46708400000003
20
55.285000000000004
10
-197.46708400000003
20
54.685000000000002
0
LWPOLYLINE
5
102
100
AcDbEntity
8
0
100
AcDbPolyline
90
18
70
1
43
0.0
10
-197.92111399999999
20
50.199329000000006
10
-197.97530699999999
20
50.118223
10
-198.05641300000002
20
50.064030000000002
10
-198.15208400000003
20
50.045000000000002
10
-198.24775500000001
20
50.064030000000002
10
-198.32886099999999
20
50.118223
10
-198.38305399999999
20
50.199329000000006
10
-198.402084
20
50.295000000000002
10
-198.402084
20
50.89500000000001
10
-198.38305399999999
20
50.990670999999999
10
-198.32886099999999
20
51.071777000000004
10
-198.24775500000001
20
51.125970000000009
10
-198.15208400000003
20
51.145000000000003
10
-198.05641300000002
20
51.125970000000009
10
-197.97530699999999
20
51.071777000000004
10
-197.92111399999999
20
50.990670999999999
10
-197.902084
20
50.89500000000001
10
-197.902084
20
50.295000000000002
0
LWPOLYLINE
5
103
100
AcDbEntity
8
0
100
AcDbPolyline
90
18
70
1
43
0.0
10
-189.226114
20
54.589329000000006
10
-189.28030699999999
20
54.508223000000001
10
-189.361413
20
54.454030000000003
10
-189.45708400000001
20
54.435000000000002
10
-189.55275499999999
20
54.454030000000003
10
-189.63386100000002
20
54.508223000000001
10
-189.68805400000002
20
54.589329000000006
10
-189.70708400000004
20
54.685000000000002
10
-189.70708400000004
20
55.285000000000004
10
-189.68805400000002
20
55.380671
10
-189.63386100000002
20
55.461777000000005
10
-189.55275499999999
20
55.51597000000001
10
-189.45708400000001
20
55.534999999999997
10
-189.361413
20
55.51597000000001
10
-189.28030699999999
20
55.461777000000005
10
-189.226114
20
55.380671
10
-189.20708400000001
20
55.285000000000004
10
-189.20708400000001
20
54.685000000000002
0
LWPOLYLINE
5
104
100
AcDbEntity
8
0
100
AcDbPolyline
90
18
70
1
43
0.0
10
-188.941114
20
50.199329000000006
10
-188.995307
20
50.118223
10
-189.076413
20
50.064030000000002
10
-189.17208400000004
20
50.045000000000002
10
-189.26775500000002
20
50.064030000000002
10
-189.348861
20
50.118223
10
-189.403054
20
50.199329000000006
10
-189.42208400000001
20
50.295000000000002
10
-189.42208400000001
20
50.89500000000001
10
-189.403054
20
50.990670999999999
10
-189.348861
20
51.071777000000004
10
-189.26775500000002
20
51.125970000000009
10
-189.17208400000004
20
51.145000000000003
10
-189.076413
20
51.125970000000009
10
-188.995307
20
51.071777000000004
10
-188.941114
20
50.990670999999999
10
-188.92208400000001
20
50.89500000000001
10
-188.92208400000001
20
50.295000000000002
0
CIRCLE
5
105
100
AcDbEntity
8
0
100
AcDbCircle
10
-311.79000000000002
20
163.83000000000004
30
0
40
1.1000000000000001
210
0
220
0
230
1
0
CIRCLE
5
106
100
AcDbEntity
8
0
100
AcDbCircle
10
-217.961321
20
179.14106000000001
30
0
40
1.5000000000000002
210
0
220
0
230
1
0
CIRCLE
5
107
100
AcDbEntity
8
0
100
AcDbCircle
10
-212.961321
20
176.94106000000002
30
0
40
1.5000000000000002
210
0
220
0
230
1
0
CIRCLE
5
108
100
AcDbEntity
8
0
100
AcDbCircle
10
-223.46132100000003
20
173.19106000000002
30
0
40
0.85000000000000009
210
0
220
0
230
1
0
CIRCLE
5
109
100
AcDbEntity
8
0
100
AcDbCircle
10
-217.961321
20
173.19106000000002
30
0
40
1.7000000000000002
210
0
220
0
230
1
0
CIRCLE
5
110
100
AcDbEntity
8
0
100
AcDbCircle
10
-212.461321
20
173.19106000000002
30
0
40
0.85000000000000009
210
0
220
0
230
1
0
CIRCLE
5
111
100
AcDbEntity
8
0
100
AcDbCircle
10
-236.50321400000001
20
161.413994
30
0
40
1.5000000000000002
210
0
220
0
230
1
0
CIRCLE
5
112
100
AcDbEntity
8
0
100
AcDbCircle
10
-231.50321400000001
20
159.21399400000001
30
0
40
1.5000000000000002
210
0
220
0
230
1
0
CIRCLE
5
113
100
AcDbEntity
8
0
100
AcDbCircle
10
-254.84999999999999
20
155.09999999999999
30
0
40
1.1000000000000001
210
0
220
0
230
1
0
CIRCLE
5
114
100
AcDbEntity
8
0
100
AcDbCircle
10
-242.00321400000004
20
155.46399400000001
30
0
40
0.85000000000000009
210
0
220
0
230
1
0
CIRCLE
5
115
100
AcDbEntity
8
0
100
AcDbCircle
10
-236.50321400000001
20
155.46399400000001
30
0
40
1.7000000000000002
210
0
220
0
230
1
0
CIRCLE
5
116
100
AcDbEntity
8
0
100
AcDbCircle
10
-231.00321400000001
20
155.46399400000001
30
0
40
0.85000000000000009
210
0
220
0
230
1
0
CIRCLE
5
117
100
AcDbEntity
8
0
100
AcDbCircle
10
-213.32584700000001
20
150.53602100000001
30
0
40
1.5000000000000002
210
0
220
0
230
1
0
CIRCLE
5
118
100
AcDbEntity
8
0
100
AcDbCircle
10
-208.32584700000001
20
148.33602100000002
30
0
40
1.5000000000000002
210
0
220
0
230
1
0
CIRCLE
5
119
100
AcDbEntity
8
0
100
AcDbCircle
10
-255.448193
20
143.68692799999999
30
0
40
1.5000000000000002
210
0
220
0
230
1
0
CIRCLE
5
120
100
AcDbEntity
8
0
100
AcDbCircle
10
-250.448193
20
141.48692800000001
30
0
40
1.5000000000000002
210
0
220
0
230
1
0
CIRCLE
5
121
100
AcDbEntity
8
0
100
AcDbCircle
10
-260.948193
20
137.73692800000001
30
0
40
0.85000000000000009
210
0
220
0
230
1
0
CIRCLE
5
122
100
AcDbEntity
8
0
100
AcDbCircle
10
-255.448193
20
137.73692800000001
30
0
40
1.7000000000000002
210
0
220
0
230
1
0
CIRCLE
5
123
100
AcDbEntity
8
0
100
AcDbCircle
10
-249.94819300000003
20
137.73692800000001
30
0
40
0.85000000000000009
210
0
220
0
230
1
0
CIRCLE
5
124
100
AcDbEntity
8
0
100
AcDbCircle
10
-232.27082600000003
20
132.60751099999999
30
0
40
1.5000000000000002
210
0
220
0
230
1
0
CIRCLE
5
125
100
AcDbEntity
8
0
100
AcDbCircle
10
-218.82584700000001
20
144.58602100000002
30
0
40
0.85000000000000009
210
0
220
0
230
1
0
CIRCLE
5
126
100
AcDbEntity
8
0
100
AcDbCircle
10
-213.32584700000001
20
144.58602100000002
30
0
40
1.7000000000000002
210
0
220
0
230
1
0
CIRCLE
5
127
100
AcDbEntity
8
0
100
AcDbCircle
10
-207.82584700000001
20
144.58602100000002
30
0
40
0.85000000000000009
210
0
220
0
230
1
0
CIRCLE
5
128
100
AcDbEntity
8
0
100
AcDbCircle
10
-237.770826
20
126.65751100000001
30
0
40
0.85000000000000009
210
0
220
0
230
1
0
CIRCLE
5
129
100
AcDbEntity
8
0
100
AcDbCircle
10
-232.27082600000003
20
126.65751100000001
30
0
40
1.7000000000000002
210
0
220
0
230
1
0
CIRCLE
5
130
100
AcDbEntity
8
0
100
AcDbCircle
10
-227.27082600000003
20
130.407511
30
0
40
1.5000000000000002
210
0
220
0
230
1
0
CIRCLE
5
131
100
AcDbEntity
8
0
100
AcDbCircle
10
-226.77082600000003
20
126.65751100000001
30
0
40
0.85000000000000009
210
0
220
0
230
1
0
CIRCLE
5
132
100
AcDbEntity
8
0
100
AcDbCircle
10
-215.12
20
126.8
30
0
40
1.1000000000000001
210
0
220
0
230
1
0
CIRCLE
5
133
100
AcDbEntity
8
0
100
AcDbCircle
10
-170.39733200000001
20
178.53672800000001
30
0
40
1.5000000000000002
210
0
220
0
230
1
0
CIRCLE
5
134
100
AcDbEntity
8
0
100
AcDbCircle
10
-175.89733200000001
20
172.58672799999999
30
0
40
0.85000000000000009
210
0
220
0
230
1
0
CIRCLE
5
135
100
AcDbEntity
8
0
100
AcDbCircle
10
-170.39733200000001
20
172.58672799999999
30
0
40
1.7000000000000002
210
0
220
0
230
1
0
CIRCLE
5
136
100
AcDbEntity
8
0
100
AcDbCircle
10
-165.39733200000001
20
176.33672799999999
30
0
40
1.5000000000000002
210
0
220
0
230
1
0
CIRCLE
5
137
100
AcDbEntity
8
0
100
AcDbCircle
10
-164.89733200000001
20
172.58672799999999
30
0
40
0.85000000000000009
210
0
220
0
230
1
0
CIRCLE
5
138
100
AcDbEntity
8
0
100
AcDbCircle
10
-193.65000000000003
20
160.5
30
0
40
1.1000000000000001
210
0
220
0
230
1
0
CIRCLE
5
139
100
AcDbEntity
8
0
100
AcDbCircle
10
-174.831264
20
149.73024599999999
30
0
40
1.5000000000000002
210
0
220
0
230
1
0
CIRCLE
5
140
100
AcDbEntity
8
0
100
AcDbCircle
10
-151.653896
20
161.01110600000001
30
0
40
1.5000000000000002
210
0
220
0
230
1
0
CIRCLE
5
141
100
AcDbEntity
8
0
100
AcDbCircle
10
-146.653896
20
158.811106
30
0
40
1.5000000000000002
210
0
220
0
230
1
0
CIRCLE
5
142
100
AcDbEntity
8
0
100
AcDbCircle
10
-157.15389600000003
20
155.061106
30
0
40
0.85000000000000009
210
0
220
0
230
1
0
CIRCLE
5
143
100
AcDbEntity
8
0
100
AcDbCircle
10
-151.653896
20
155.061106
30
0
40
1.7000000000000002
210
0
220
0
230
1
0
CIRCLE
5
144
100
AcDbEntity
8
0
100
AcDbCircle
10
-146.153896
20
155.061106
30
0
40
0.85000000000000009
210
0
220
0
230
1
0
CIRCLE
5
145
100
AcDbEntity
8
0
100
AcDbCircle
10
-71.790000000000006
20
163.83000000000004
30
0
40
1.1000000000000001
210
0
220
0
230
1
0
CIRCLE
5
146
100
AcDbEntity
8
0
100
AcDbCircle
10
-180.331264
20
143.78024600000001
30
0
40
0.85000000000000009
210
0
220
0
230
1
0
CIRCLE
5
147
100
AcDbEntity
8
0
100
AcDbCircle
10
-169.831264
20
147.53024600000001
30
0
40
1.5000000000000002
210
0
220
0
230
1
0
CIRCLE
5
148
100
AcDbEntity
8
0
100
AcDbCircle
10
-174.831264
20
143.78024600000001
30
0
40
1.7000000000000002
210
0
220
0
230
1
0
CIRCLE
5
149
100
AcDbEntity
8
0
100
AcDbCircle
10
-169.33126400000003
20
143.78024600000001
30
0
40
0.85000000000000009
210
0
220
0
230
1
0
CIRCLE
5
150
100
AcDbEntity
8
0
100
AcDbCircle
10
-156
20
137.72999999999999
30
0
40
1.1000000000000001
210
0
220
0
230
1
0
CIRCLE
5
151
100
AcDbEntity
8
0
100
AcDbCircle
10
-327.39880300000004
20
99.973595000000017
30
0
40
1.5000000000000002
210
0
220
0
230
1
0
CIRCLE
5
152
100
AcDbEntity
8
0
100
AcDbCircle
10
-307.63
20
99.950000000000017
30
0
40
1.1000000000000001
210
0
220
0
230
1
0
CIRCLE
5
153
100
AcDbEntity
8
0
100
AcDbCircle
10
-322.39880300000004
20
97.773595000000014
30
0
40
1.5000000000000002
210
0
220
0
230
1
0
CIRCLE
5
154
100
AcDbEntity
8
0
100
AcDbCircle
10
-332.89880299999999
20
94.023595000000014
30
0
40
0.85000000000000009
210
0
220
0
230
1
0
CIRCLE
5
155
100
AcDbEntity
8
0
100
AcDbCircle
10
-327.39880300000004
20
94.023595000000014
30
0
40
1.7000000000000002
210
0
220
0
230
1
0
CIRCLE
5
156
100
AcDbEntity
8
0
100
AcDbCircle
10
-321.89880299999999
20
94.023595000000014
30
0
40
0.85000000000000009
210
0
220
0
230
1
0
CIRCLE
5
157
100
AcDbEntity
8
0
100
AcDbCircle
10
-300.79521599999998
20
88.894178999999994
30
0
40
1.5000000000000002
210
0
220
0
230
1
0
CIRCLE
5
158
100
AcDbEntity
8
0
100
AcDbCircle
10
-306.29521599999998
20
82.944179000000005
30
0
40
0.85000000000000009
210
0
220
0
230
1
0
CIRCLE
5
159
100
AcDbEntity
8
0
100
AcDbCircle
10
-300.79521599999998
20
82.944179000000005
30
0
40
1.7000000000000002
210
0
220
0
230
1
0
CIRCLE
5
160
100
AcDbEntity
8
0
100
AcDbCircle
10
-295.79521599999998
20
86.694179000000005
30
0
40
1.5000000000000002
210
0
220
0
230
1
0
CIRCLE
5
161
100
AcDbEntity
8
0
100
AcDbCircle
10
-295.29521599999998
20
82.944179000000005
30
0
40
0.85000000000000009
210
0
220
0
230
1
0
CIRCLE
5
162
100
AcDbEntity
8
0
100
AcDbCircle
10
-274.19162799999998
20
90.304286000000005
30
0
40
1.5000000000000002
210
0
220
0
230
1
0
CIRCLE
5
163
100
AcDbEntity
8
0
100
AcDbCircle
10
-269.19162799999998
20
88.104286000000002
30
0
40
1.5000000000000002
210
0
220
0
230
1
0
CIRCLE
5
164
100
AcDbEntity
8
0
100
AcDbCircle
10
-279.69162799999998
20
84.354286000000002
30
0
40
0.85000000000000009
210
0
220
0
230
1
0
CIRCLE
5
165
100
AcDbEntity
8
0
100
AcDbCircle
10
-274.19162799999998
20
84.354286000000002
30
0
40
1.7000000000000002
210
0
220
0
230
1
0
CIRCLE
5
166
100
AcDbEntity
8
0
100
AcDbCircle
10
-268.69162799999998
20
84.354286000000002
30
0
40
0.85000000000000009
210
0
220
0
230
1
0
CIRCLE
5
167
100
AcDbEntity
8
0
100
AcDbCircle
10
-251.21580499999999
20
105.21113700000001
30
0
40
1.5000000000000002
210
0
220
0
230
1
0
CIRCLE
5
168
100
AcDbEntity
8
0
100
AcDbCircle
10
-256.71580499999999
20
99.261137000000019
30
0
40
0.85000000000000009
210
0
220
0
230
1
0
CIRCLE
5
169
100
AcDbEntity
8
0
100
AcDbCircle
10
-251.21580499999999
20
99.261137000000019
30
0
40
1.7000000000000002
210
0
220
0
230
1
0
CIRCLE
5
170
100
AcDbEntity
8
0
100
AcDbCircle
10
-246.21580499999999
20
103.01113700000002
30
0
40
1.5000000000000002
210
0
220
0
230
1
0
CIRCLE
5
171
100
AcDbEntity
8
0
100
AcDbCircle
10
-245.71580499999999
20
99.261137000000019
30
0
40
0.85000000000000009
210
0
220
0
230
1
0
CIRCLE
5
172
100
AcDbEntity
8
0
100
AcDbCircle
10
-199.16358400000001
20
108.10000000000001
30
0
40
0.85000000000000009
210
0
220
0
230
1
0
CIRCLE
5
173
100
AcDbEntity
8
0
100
AcDbCircle
10
-201.94958400000002
20
92.535000000000011
30
0
40
0.49530000000000007
210
0
220
0
230
1
0
CIRCLE
5
174
100
AcDbEntity
8
0
100
AcDbCircle
10
-199.91758400000003
20
92.535000000000011
30
0
40
0.49530000000000007
210
0
220
0
230
1
0
CIRCLE
5
175
100
AcDbEntity
8
0
100
AcDbCircle
10
-200.933584
20
87.454999999999998
30
0
40
0.49530000000000007
210
0
220
0
230
1
0
CIRCLE
5
176
100
AcDbEntity
8
0
100
AcDbCircle
10
-323.36795600000005
20
74.390214999999998
30
0
40
1.5000000000000002
210
0
220
0
230
1
0
CIRCLE
5
177
100
AcDbEntity
8
0
100
AcDbCircle
10
-318.36795600000005
20
72.190214999999995
30
0
40
1.5000000000000002
210
0
220
0
230
1
0
CIRCLE
5
178
100
AcDbEntity
8
0
100
AcDbCircle
10
-328.86795599999999
20
68.440214999999995
30
0
40
0.85000000000000009
210
0
220
0
230
1
0
CIRCLE
5
179
100
AcDbEntity
8
0
100
AcDbCircle
10
-323.36795600000005
20
68.440214999999995
30
0
40
1.7000000000000002
210
0
220
0
230
1
0
CIRCLE
5
180
100
AcDbEntity
8
0
100
AcDbCircle
10
-317.86795599999999
20
68.440214999999995
30
0
40
0.85000000000000009
210
0
220
0
230
1
0
CIRCLE
5
181
100
AcDbEntity
8
0
100
AcDbCircle
10
-285.33000000000004
20
70.519999999999996
30
0
40
1.1000000000000001
210
0
220
0
230
1
0
CIRCLE
5
182
100
AcDbEntity
8
0
100
AcDbCircle
10
-302.26436899999999
20
57.360799
30
0
40
0.85000000000000009
210
0
220
0
230
1
0
CIRCLE
5
183
100
AcDbEntity
8
0
100
AcDbCircle
10
-296.76436899999999
20
63.310799000000003
30
0
40
1.5000000000000002
210
0
220
0
230
1
0
CIRCLE
5
184
100
AcDbEntity
8
0
100
AcDbCircle
10
-291.76436899999999
20
61.110799
30
0
40
1.5000000000000002
210
0
220
0
230
1
0
CIRCLE
5
185
100
AcDbEntity
8
0
100
AcDbCircle
10
-270.36232400000006
20
64.519462000000004
30
0
40
1.5000000000000002
210
0
220
0
230
1
0
CIRCLE
5
186
100
AcDbEntity
8
0
100
AcDbCircle
10
-265.36232400000006
20
62.319462000000001
30
0
40
1.5000000000000002
210
0
220
0
230
1
0
CIRCLE
5
187
100
AcDbEntity
8
0
100
AcDbCircle
10
-275.862324
20
58.569462000000001
30
0
40
0.85000000000000009
210
0
220
0
230
1
0
CIRCLE
5
188
100
AcDbEntity
8
0
100
AcDbCircle
10
-270.36232400000006
20
58.569462000000001
30
0
40
1.7000000000000002
210
0
220
0
230
1
0
CIRCLE
5
189
100
AcDbEntity
8
0
100
AcDbCircle
10
-264.862324
20
58.569462000000001
30
0
40
0.85000000000000009
210
0
220
0
230
1
0
CIRCLE
5
190
100
AcDbEntity
8
0
100
AcDbCircle
10
-296.76436899999999
20
57.360799
30
0
40
1.7000000000000002
210
0
220
0
230
1
0
CIRCLE
5
191
100
AcDbEntity
8
0
100
AcDbCircle
10
-291.26436899999999
20
57.360799
30
0
40
0.85000000000000009
210
0
220
0
230
1
0
CIRCLE
5
192
100
AcDbEntity
8
0
100
AcDbCircle
10
-247.38650000000004
20
79.627757000000003
30
0
40
1.5000000000000002
210
0
220
0
230
1
0
CIRCLE
5
193
100
AcDbEntity
8
0
100
AcDbCircle
10
-242.38650000000004
20
77.427757
30
0
40
1.5000000000000002
210
0
220
0
230
1
0
CIRCLE
5
194
100
AcDbEntity
8
0
100
AcDbCircle
10
-252.88650000000004
20
73.677757
30
0
40
0.85000000000000009
210
0
220
0
230
1
0
CIRCLE
5
195
100
AcDbEntity
8
0
100
AcDbCircle
10
-247.38650000000004
20
73.677757
30
0
40
1.7000000000000002
210
0
220
0
230
1
0
CIRCLE
5
196
100
AcDbEntity
8
0
100
AcDbCircle
10
-241.88650000000001
20
73.677757
30
0
40
0.85000000000000009
210
0
220
0
230
1
0
CIRCLE
5
197
100
AcDbEntity
8
0
100
AcDbCircle
10
-194.93858399999999
20
80.045000000000002
30
0
40
0.17499999999999999
210
0
220
0
230
1
0
CIRCLE
5
198
100
AcDbEntity
8
0
100
AcDbCircle
10
-194.93858399999999
20
78.769999999999996
30
0
40
0.17499999999999999
210
0
220
0
230
1
0
CIRCLE
5
199
100
AcDbEntity
8
0
100
AcDbCircle
10
-194.93858399999999
20
77.495000000000005
30
0
40
0.17499999999999999
210
0
220
0
230
1
0
CIRCLE
5
200
100
AcDbEntity
8
0
100
AcDbCircle
10
-197.26208400000002
20
56.234999999999999
30
0
40
0.32500000000000001
210
0
220
0
230
1
0
CIRCLE
5
201
100
AcDbEntity
8
0
100
AcDbCircle
10
-196.46208400000003
20
55.585000000000008
30
0
40
0.20000000000000004
210
0
220
0
230
1
0
CIRCLE
5
202
100
AcDbEntity
8
0
100
AcDbCircle
10
-194.86208400000004
20
55.585000000000008
30
0
40
0.20000000000000004
210
0
220
0
230
1
0
CIRCLE
5
203
100
AcDbEntity
8
0
100
AcDbCircle
10
-196.062084
20
54.885000000000005
30
0
40
0.20000000000000004
210
0
220
0
230
1
0
CIRCLE
5
204
100
AcDbEntity
8
0
100
AcDbCircle
10
-195.26208400000002
20
54.885000000000005
30
0
40
0.20000000000000004
210
0
220
0
230
1
0
CIRCLE
5
205
100
AcDbEntity
8
0
100
AcDbCircle
10
-194.46208400000003
20
54.885000000000005
30
0
40
0.20000000000000004
210
0
220
0
230
1
0
CIRCLE
5
206
100
AcDbEntity
8
0
100
AcDbCircle
10
-211.79000000000002
20
53.829999999999998
30
0
40
1.1000000000000001
210
0
220
0
230
1
0
CIRCLE
5
207
100
AcDbEntity
8
0
100
AcDbCircle
10
-193.66358399999999
20
114.05000000000001
30
0
40
1.5000000000000002
210
0
220
0
230
1
0
CIRCLE
5
208
100
AcDbEntity
8
0
100
AcDbCircle
10
-188.66358399999999
20
111.85000000000001
30
0
40
1.5000000000000002
210
0
220
0
230
1
0
CIRCLE
5
209
100
AcDbEntity
8
0
100
AcDbCircle
10
-193.66358399999999
20
108.10000000000001
30
0
40
1.7000000000000002
210
0
220
0
230
1
0
CIRCLE
5
210
100
AcDbEntity
8
0
100
AcDbCircle
10
-188.16358399999999
20
108.10000000000001
30
0
40
0.85000000000000009
210
0
220
0
230
1
0
CIRCLE
5
211
100
AcDbEntity
8
0
100
AcDbCircle
10
-136.53822099999999
20
105.614025
30
0
40
1.5000000000000002
210
0
220
0
230
1
0
CIRCLE
5
212
100
AcDbEntity
8
0
100
AcDbCircle
10
-131.53822099999999
20
103.41402500000001
30
0
40
1.5000000000000002
210
0
220
0
230
1
0
CIRCLE
5
213
100
AcDbEntity
8
0
100
AcDbCircle
10
-142.03822099999999
20
99.664025000000009
30
0
40
0.85000000000000009
210
0
220
0
230
1
0
CIRCLE
5
214
100
AcDbEntity
8
0
100
AcDbCircle
10
-136.53822099999999
20
99.664025000000009
30
0
40
1.7000000000000002
210
0
220
0
230
1
0
CIRCLE
5
215
100
AcDbEntity
8
0
100
AcDbCircle
10
-131.03822099999999
20
99.664025000000009
30
0
40
0.85000000000000009
210
0
220
0
230
1
0
CIRCLE
5
216
100
AcDbEntity
8
0
100
AcDbCircle
10
-119.22
20
111.77
30
0
40
1.1000000000000001
210
0
220
0
230
1
0
CIRCLE
5
217
100
AcDbEntity
8
0
100
AcDbCircle
10
-61.564478000000008
20
100.779371
30
0
40
1.5000000000000002
210
0
220
0
230
1
0
CIRCLE
5
218
100
AcDbEntity
8
0
100
AcDbCircle
10
-113.76394000000002
20
91.311505000000011
30
0
40
1.5000000000000002
210
0
220
0
230
1
0
CIRCLE
5
219
100
AcDbEntity
8
0
100
AcDbCircle
10
-108.76394000000002
20
89.111504999999994
30
0
40
1.5000000000000002
210
0
220
0
230
1
0
CIRCLE
5
220
100
AcDbEntity
8
0
100
AcDbCircle
10
-119.26394000000002
20
85.361504999999994
30
0
40
0.85000000000000009
210
0
220
0
230
1
0
CIRCLE
5
221
100
AcDbEntity
8
0
100
AcDbCircle
10
-113.76394000000002
20
85.361504999999994
30
0
40
1.7000000000000002
210
0
220
0
230
1
0
CIRCLE
5
222
100
AcDbEntity
8
0
100
AcDbCircle
10
-108.26394000000001
20
85.361504999999994
30
0
40
0.85000000000000009
210
0
220
0
230
1
0
CIRCLE
5
223
100
AcDbEntity
8
0
100
AcDbCircle
10
-92.45881
20
83.347066000000012
30
0
40
0.85000000000000009
210
0
220
0
230
1
0
CIRCLE
5
224
100
AcDbEntity
8
0
100
AcDbCircle
10
-56.564478000000008
20
98.579371000000009
30
0
40
1.5000000000000002
210
0
220
0
230
1
0
CIRCLE
5
225
100
AcDbEntity
8
0
100
AcDbCircle
10
-67.064477999999994
20
94.829370999999995
30
0
40
0.85000000000000009
210
0
220
0
230
1
0
CIRCLE
5
226
100
AcDbEntity
8
0
100
AcDbCircle
10
-61.564478000000008
20
94.829370999999995
30
0
40
1.7000000000000002
210
0
220
0
230
1
0
CIRCLE
5
227
100
AcDbEntity
8
0
100
AcDbCircle
10
-56.064478000000008
20
94.829370999999995
30
0
40
0.85000000000000009
210
0
220
0
230
1
0
CIRCLE
5
228
100
AcDbEntity
8
0
100
AcDbCircle
10
-86.95881
20
89.297066000000015
30
0
40
1.5000000000000002
210
0
220
0
230
1
0
CIRCLE
5
229
100
AcDbEntity
8
0
100
AcDbCircle
10
-81.95881
20
87.097066000000012
30
0
40
1.5000000000000002
210
0
220
0
230
1
0
CIRCLE
5
230
100
AcDbEntity
8
0
100
AcDbCircle
10
-86.95881
20
83.347066000000012
30
0
40
1.7000000000000002
210
0
220
0
230
1
0
CIRCLE
5
231
100
AcDbEntity
8
0
100
AcDbCircle
10
-81.458810000000014
20
83.347066000000012
30
0
40
0.85000000000000009
210
0
220
0
230
1
0
CIRCLE
5
232
100
AcDbEntity
8
0
100
AcDbCircle
10
-193.66358399999999
20
80.045000000000002
30
0
40
0.17499999999999999
210
0
220
0
230
1
0
CIRCLE
5
233
100
AcDbEntity
8
0
100
AcDbCircle
10
-192.38858400000001
20
80.045000000000002
30
0
40
0.17499999999999999
210
0
220
0
230
1
0
CIRCLE
5
234
100
AcDbEntity
8
0
100
AcDbCircle
10
-193.66358399999999
20
78.769999999999996
30
0
40
0.17499999999999999
210
0
220
0
230
1
0
CIRCLE
5
235
100
AcDbEntity
8
0
100
AcDbCircle
10
-192.38858400000001
20
78.769999999999996
30
0
40
0.17499999999999999
210
0
220
0
230
1
0
CIRCLE
5
236
100
AcDbEntity
8
0
100
AcDbCircle
10
-193.66358399999999
20
77.495000000000005
30
0
40
0.17499999999999999
210
0
220
0
230
1
0
CIRCLE
5
237
100
AcDbEntity
8
0
100
AcDbCircle
10
-192.38858400000001
20
77.495000000000005
30
0
40
0.17499999999999999
210
0
220
0
230
1
0
CIRCLE
5
238
100
AcDbEntity
8
0
100
AcDbCircle
10
-189.91208400000002
20
56.234999999999999
30
0
40
0.32500000000000001
210
0
220
0
230
1
0
CIRCLE
5
239
100
AcDbEntity
8
0
100
AcDbCircle
10
-194.062084
20
55.585000000000008
30
0
40
0.20000000000000004
210
0
220
0
230
1
0
CIRCLE
5
240
100
AcDbEntity
8
0
100
AcDbCircle
10
-193.26208399999999
20
55.585000000000008
30
0
40
0.20000000000000004
210
0
220
0
230
1
0
CIRCLE
5
241
100
AcDbEntity
8
0
100
AcDbCircle
10
-192.462084
20
55.585000000000008
30
0
40
0.20000000000000004
210
0
220
0
230
1
0
CIRCLE
5
242
100
AcDbEntity
8
0
100
AcDbCircle
10
-190.86208400000001
20
55.585000000000008
30
0
40
0.20000000000000004
210
0
220
0
230
1
0
CIRCLE
5
243
100
AcDbEntity
8
0
100
AcDbCircle
10
-192.86208400000004
20
54.885000000000005
30
0
40
0.20000000000000004
210
0
220
0
230
1
0
CIRCLE
5
244
100
AcDbEntity
8
0
100
AcDbCircle
10
-192.06208400000003
20
54.885000000000005
30
0
40
0.20000000000000004
210
0
220
0
230
1
0
CIRCLE
5
245
100
AcDbEntity
8
0
100
AcDbCircle
10
-191.26208399999999
20
54.885000000000005
30
0
40
0.20000000000000004
210
0
220
0
230
1
0
CIRCLE
5
246
100
AcDbEntity
8
0
100
AcDbCircle
10
-171.78999999999999
20
53.829999999999998
30
0
40
1.1000000000000001
210
0
220
0
230
1
0
CIRCLE
5
247
100
AcDbEntity
8
0
100
AcDbCircle
10
-127.52717500000001
20
59.979570000000002
30
0
40
0.85000000000000009
210
0
220
0
230
1
0
CIRCLE
5
248
100
AcDbEntity
8
0
100
AcDbCircle
10
-103.03
20
70.019999999999996
30
0
40
1.1000000000000001
210
0
220
0
230
1
0
CIRCLE
5
249
100
AcDbEntity
8
0
100
AcDbCircle
10
-122.027175
20
65.929569999999998
30
0
40
1.5000000000000002
210
0
220
0
230
1
0
CIRCLE
5
250
100
AcDbEntity
8
0
100
AcDbCircle
10
-117.027175
20
63.729570000000002
30
0
40
1.5000000000000002
210
0
220
0
230
1
0
CIRCLE
5
251
100
AcDbEntity
8
0
100
AcDbCircle
10
-122.027175
20
59.979570000000002
30
0
40
1.7000000000000002
210
0
220
0
230
1
0
CIRCLE
5
252
100
AcDbEntity
8
0
100
AcDbCircle
10
-116.52717500000001
20
59.979570000000002
30
0
40
0.85000000000000009
210
0
220
0
230
1
0
LWPOLYLINE
5
253
100
AcDbEntity
8
0
100
AcDbPolyline
90
104
70
1
43
0.0
10
-328.66691600000001
20
49.608866999999996
10
-328.04148900000001
20
49.549748000000008
10
-327.41358400000001
20
49.530000000000001
10
-59.913583999999993
20
49.530000000000001
10
-59.285677999999997
20
49.549732000000006
10
-58.660251000000009
20
49.608851000000001
10
-58.039769999999997
20
49.707125000000005
10
-57.426682999999997
20
49.844166000000001
10
-56.823411999999998
20
50.019432000000002
10
-56.232335999999997
20
50.232230999999999
10
-55.655788000000008
20
50.481724999999997
10
-55.096044000000006
20
50.766929000000005
10
-54.555312000000001
20
51.08671600000001
10
-54.035727000000009
20
51.439826000000004
10
-53.539339000000005
20
51.824863000000008
10
-53.068108000000009
20
52.240309000000011
10
-52.623892000000005
20
52.684525000000008
10
-52.208446000000002
20
53.155755999999997
10
-51.823408000000001
20
53.652144
10
-51.470298
20
54.171729000000006
10
-51.150511000000009
20
54.712460000000007
10
-50.865307000000008
20
55.272204000000009
10
-50.615813000000003
20
55.848751999999998
10
-50.403013000000001
20
56.439827999999999
10
-50.227747000000001
20
57.043100000000003
10
-50.090706000000004
20
57.656185999999998
10
-49.992432000000008
20
58.27666700000001
10
-49.933312000000001
20
58.902093999999998
10
-49.913584
20
59.530000000000001
10
-49.913584
20
171.93000000000001
10
-49.933317000000002
20
172.557906
10
-49.99243700000001
20
173.18333300000003
10
-50.090710999999999
20
173.80381400000002
10
-50.22775200000001
20
174.4169
10
-50.403019
20
175.020172
10
-50.615819000000002
20
175.61124799999999
10
-50.865313000000008
20
176.18779599999999
10
-51.150517000000008
20
176.74754000000001
10
-51.470303999999999
20
177.28827200000001
10
-51.823413000000009
20
177.80785700000001
10
-52.208450999999997
20
178.30424500000004
10
-52.623896999999999
20
178.775476
10
-53.068111999999999
20
179.21969200000004
10
-53.539343000000002
20
179.63513900000004
10
-54.035730000000008
20
180.02017699999999
10
-54.555315
20
180.373287
10
-55.096046000000001
20
180.69307599999999
10
-55.655790000000003
20
180.97828000000004
10
-56.232337000000001
20
181.22777500000001
10
-56.823413000000009
20
181.44057599999999
10
-57.426684000000002
20
181.61584400000004
10
-58.039769999999997
20
181.75288599999999
10
-58.660251000000009
20
181.85116099999999
10
-59.285677999999997
20
181.91028200000002
10
-59.913584
20
181.93000000000001
10
-327.41358400000001
20
181.93000000000001
10
-328.04149000000001
20
181.910268
10
-328.66691800000007
20
181.85114899999999
10
-329.28739900000005
20
181.75287499999999
10
-329.900486
20
181.61583500000003
10
-330.50375800000006
20
181.44056900000004
10
-331.09483399999999
20
181.22776900000002
10
-331.67138200000005
20
180.978275
10
-332.23112700000001
20
180.693072
10
-332.77185900000001
20
180.37328500000001
10
-333.29144500000007
20
180.02017599999999
10
-333.78783300000003
20
179.63513800000001
10
-334.25906500000002
20
179.21969200000004
10
-334.70328100000006
20
178.77547700000002
10
-335.11872799999998
20
178.30424500000004
10
-335.50376599999998
20
177.80785800000001
10
-335.856876
20
177.28827300000003
10
-336.17666400000007
20
176.74754100000001
10
-336.46186899999998
20
176.18779700000002
10
-336.71136300000001
20
175.61124899999999
10
-336.92416400000008
20
175.02017300000003
10
-337.09943099999998
20
174.416901
10
-337.23647200000005
20
173.80381499999999
10
-337.33474699999999
20
173.183334
10
-337.39386700000006
20
172.557906
10
-337.41358400000001
20
171.93000000000001
10
-337.41358400000001
20
59.529999999999994
10
-337.39385099999998
20
58.90209500000001
10
-337.33473099999998
20
58.276668000000001
10
-337.23645599999998
20
57.656188
10
-337.09941500000008
20
57.043103000000002
10
-336.92414900000006
20
56.43983200000001
10
-336.71134899999998
20
55.848757000000006
10
-336.46185400000002
20
55.272210000000008
10
-336.17665
20
54.712466000000006
10
-335.85686299999998
20
54.17173600000001
10
-335.50375300000007
20
53.652152000000008
10
-335.11871600000001
20
53.155765000000002
10
-334.70326899999998
20
52.684533999999999
10
-334.25905399999999
20
52.240320000000004
10
-333.78782300000006
20
51.824874000000001
10
-333.29143499999998
20
51.439836999999997
10
-332.77185100000003
20
51.086729000000005
10
-332.23111899999998
20
50.766942
10
-331.67137600000001
20
50.481739000000005
10
-331.09482800000001
20
50.232246000000004
10
-330.50375300000007
20
50.019446000000009
10
-329.90048200000001
20
49.844180999999999
10
-329.287396
20
49.707141000000007
0
CIRCLE
5
254
100
AcDbEntity
8
0
100
AcDbCircle
10
-311.79000000000002
20
163.83000000000004
30
0
40
1.1000000000000001
210
-0
220
0
230
1
0
CIRCLE
5
255
100
AcDbEntity
8
0
100
AcDbCircle
10
-217.961321
20
179.14106000000001
30
0
40
1.5000000000000002
210
-0
220
0
230
1
0
CIRCLE
5
256
100
AcDbEntity
8
0
100
AcDbCircle
10
-212.961321
20
176.94106000000002
30
0
40
1.5000000000000002
210
-0
220
0
230
1
0
CIRCLE
5
257
100
AcDbEntity
8
0
100
AcDbCircle
10
-223.46132100000003
20
173.19106000000002
30
0
40
0.85000000000000009
210
-0
220
0
230
1
0
CIRCLE
5
258
100
AcDbEntity
8
0
100
AcDbCircle
10
-217.961321
20
173.19106000000002
30
0
40
1.7000000000000002
210
-0
220
0
230
1
0
CIRCLE
5
259
100
AcDbEntity
8
0
100
AcDbCircle
10
-212.461321
20
173.19106000000002
30
0
40
0.85000000000000009
210
-0
220
0
230
1
0
CIRCLE
5
260
100
AcDbEntity
8
0
100
AcDbCircle
10
-236.50321400000001
20
161.413994
30
0
40
1.5000000000000002
210
-0
220
0
230
1
0
CIRCLE
5
261
100
AcDbEntity
8
0
100
AcDbCircle
10
-231.50321400000001
20
159.21399400000001
30
0
40
1.5000000000000002
210
-0
220
0
230
1
0
CIRCLE
5
262
100
AcDbEntity
8
0
100
AcDbCircle
10
-254.84999999999999
20
155.09999999999999
30
0
40
1.1000000000000001
210
-0
220
0
230
1
0
CIRCLE
5
263
100
AcDbEntity
8
0
100
AcDbCircle
10
-242.00321400000004
20
155.46399400000001
30
0
40
0.85000000000000009
210
-0
220
0
230
1
0
CIRCLE
5
264
100
AcDbEntity
8
0
100
AcDbCircle
10
-236.50321400000001
20
155.46399400000001
30
0
40
1.7000000000000002
210
-0
220
0
230
1
0
CIRCLE
5
265
100
AcDbEntity
8
0
100
AcDbCircle
10
-231.00321400000001
20
155.46399400000001
30
0
40
0.85000000000000009
210
-0
220
0
230
1
0
CIRCLE
5
266
100
AcDbEntity
8
0
100
AcDbCircle
10
-213.32584700000001
20
150.53602100000001
30
0
40
1.5000000000000002
210
-0
220
0
230
1
0
CIRCLE
5
267
100
AcDbEntity
8
0
100
AcDbCircle
10
-208.32584700000001
20
148.33602100000002
30
0
40
1.5000000000000002
210
-0
220
0
230
1
0
CIRCLE
5
268
100
AcDbEntity
8
0
100
AcDbCircle
10
-255.448193
20
143.68692799999999
30
0
40
1.5000000000000002
210
-0
220
0
230
1
0
CIRCLE
5
269
100
AcDbEntity
8
0
100
AcDbCircle
10
-250.448193
20
141.48692800000001
30
0
40
1.5000000000000002
210
-0
220
0
230
1
0
CIRCLE
5
270
100
AcDbEntity
8
0
100
AcDbCircle
10
-260.948193
20
137.73692800000001
30
0
40
0.85000000000000009
210
-0
220
0
230
1
0
CIRCLE
5
271
100
AcDbEntity
8
0
100
AcDbCircle
10
-255.448193
20
137.73692800000001
30
0
40
1.7000000000000002
210
-0
220
0
230
1
0
CIRCLE
5
272
100
AcDbEntity
8
0
100
AcDbCircle
10
-249.94819300000003
20
137.73692800000001
30
0
40
0.85000000000000009
210
-0
220
0
230
1
0
CIRCLE
5
273
100
AcDbEntity
8
0
100
AcDbCircle
10
-232.27082600000003
20
132.60751099999999
30
0
40
1.5000000000000002
210
-0
220
0
230
1
0
CIRCLE
5
274
100
AcDbEntity
8
0
100
AcDbCircle
10
-218.82584700000001
20
144.58602100000002
30
0
40
0.85000000000000009
210
-0
220
0
230
1
0
CIRCLE
5
275
100
AcDbEntity
8
0
100
AcDbCircle
10
-213.32584700000001
20
144.58602100000002
30
0
40
1.7000000000000002
210
-0
220
0
230
1
0
CIRCLE
5
276
100
AcDbEntity
8
0
100
AcDbCircle
10
-207.82584700000001
20
144.58602100000002
30
0
40
0.85000000000000009
210
-0
220
0
230
1
0
CIRCLE
5
277
100
AcDbEntity
8
0
100
AcDbCircle
10
-237.770826
20
126.65751100000001
30
0
40
0.85000000000000009
210
-0
220
0
230
1
0
CIRCLE
5
278
100
AcDbEntity
8
0
100
AcDbCircle
10
-232.27082600000003
20
126.65751100000001
30
0
40
1.7000000000000002
210
-0
220
0
230
1
0
CIRCLE
5
279
100
AcDbEntity
8
0
100
AcDbCircle
10
-227.27082600000003
20
130.407511
30
0
40
1.5000000000000002
210
-0
220
0
230
1
0
CIRCLE
5
280
100
AcDbEntity
8
0
100
AcDbCircle
10
-226.77082600000003
20
126.65751100000001
30
0
40
0.85000000000000009
210
-0
220
0
230
1
0
CIRCLE
5
281
100
AcDbEntity
8
0
100
AcDbCircle
10
-215.12
20
126.8
30
0
40
1.1000000000000001
210
-0
220
0
230
1
0
CIRCLE
5
282
100
AcDbEntity
8
0
100
AcDbCircle
10
-170.39733200000001
20
178.53672800000001
30
0
40
1.5000000000000002
210
-0
220
0
230
1
0
CIRCLE
5
283
100
AcDbEntity
8
0
100
AcDbCircle
10
-175.89733200000001
20
172.58672799999999
30
0
40
0.85000000000000009
210
-0
220
0
230
1
0
CIRCLE
5
284
100
AcDbEntity
8
0
100
AcDbCircle
10
-170.39733200000001
20
172.58672799999999
30
0
40
1.7000000000000002
210
-0
220
0
230
1
0
CIRCLE
5
285
100
AcDbEntity
8
0
100
AcDbCircle
10
-165.39733200000001
20
176.33672799999999
30
0
40
1.5000000000000002
210
-0
220
0
230
1
0
CIRCLE
5
286
100
AcDbEntity
8
0
100
AcDbCircle
10
-164.89733200000001
20
172.58672799999999
30
0
40
0.85000000000000009
210
-0
220
0
230
1
0
CIRCLE
5
287
100
AcDbEntity
8
0
100
AcDbCircle
10
-193.65000000000003
20
160.5
30
0
40
1.1000000000000001
210
-0
220
0
230
1
0
CIRCLE
5
288
100
AcDbEntity
8
0
100
AcDbCircle
10
-174.831264
20
149.73024599999999
30
0
40
1.5000000000000002
210
-0
220
0
230
1
0
CIRCLE
5
289
100
AcDbEntity
8
0
100
AcDbCircle
10
-151.653896
20
161.01110600000001
30
0
40
1.5000000000000002
210
-0
220
0
230
1
0
CIRCLE
5
290
100
AcDbEntity
8
0
100
AcDbCircle
10
-146.653896
20
158.811106
30
0
40
1.5000000000000002
210
-0
220
0
230
1
0
CIRCLE
5
291
100
AcDbEntity
8
0
100
AcDbCircle
10
-157.15389600000003
20
155.061106
30
0
40
0.85000000000000009
210
-0
220
0
230
1
0
CIRCLE
5
292
100
AcDbEntity
8
0
100
AcDbCircle
10
-151.653896
20
155.061106
30
0
40
1.7000000000000002
210
-0
220
0
230
1
0
CIRCLE
5
293
100
AcDbEntity
8
0
100
AcDbCircle
10
-146.153896
20
155.061106
30
0
40
0.85000000000000009
210
-0
220
0
230
1
0
CIRCLE
5
294
100
AcDbEntity
8
0
100
AcDbCircle
10
-71.790000000000006
20
163.83000000000004
30
0
40
1.1000000000000001
210
-0
220
0
230
1
0
CIRCLE
5
295
100
AcDbEntity
8
0
100
AcDbCircle
10
-180.331264
20
143.78024600000001
30
0
40
0.85000000000000009
210
-0
220
0
230
1
0
CIRCLE
5
296
100
AcDbEntity
8
0
100
AcDbCircle
10
-169.831264
20
147.53024600000001
30
0
40
1.5000000000000002
210
-0
220
0
230
1
0
CIRCLE
5
297
100
AcDbEntity
8
0
100
AcDbCircle
10
-174.831264
20
143.78024600000001
30
0
40
1.7000000000000002
210
-0
220
0
230
1
0
CIRCLE
5
298
100
AcDbEntity
8
0
100
AcDbCircle
10
-169.33126400000003
20
143.78024600000001
30
0
40
0.85000000000000009
210
-0
220
0
230
1
0
CIRCLE
5
299
100
AcDbEntity
8
0
100
AcDbCircle
10
-156
20
137.72999999999999
30
0
40
1.1000000000000001
210
-0
220
0
230
1
0
CIRCLE
5
300
100
AcDbEntity
8
0
100
AcDbCircle
10
-327.39880300000004
20
99.973595000000017
30
0
40
1.5000000000000002
210
-0
220
0
230
1
0
CIRCLE
5
301
100
AcDbEntity
8
0
100
AcDbCircle
10
-307.63
20
99.950000000000017
30
0
40
1.1000000000000001
210
-0
220
0
230
1
0
CIRCLE
5
302
100
AcDbEntity
8
0
100
AcDbCircle
10
-322.39880300000004
20
97.773595000000014
30
0
40
1.5000000000000002
210
-0
220
0
230
1
0
CIRCLE
5
303
100
AcDbEntity
8
0
100
AcDbCircle
10
-332.89880299999999
20
94.023595000000014
30
0
40
0.85000000000000009
210
-0
220
0
230
1
0
CIRCLE
5
304
100
AcDbEntity
8
0
100
AcDbCircle
10
-327.39880300000004
20
94.023595000000014
30
0
40
1.7000000000000002
210
-0
220
0
230
1
0
CIRCLE
5
305
100
AcDbEntity
8
0
100
AcDbCircle
10
-321.89880299999999
20
94.023595000000014
30
0
40
0.85000000000000009
210
-0
220
0
230
1
0
CIRCLE
5
306
100
AcDbEntity
8
0
100
AcDbCircle
10
-300.79521599999998
20
88.894178999999994
30
0
40
1.5000000000000002
210
-0
220
0
230
1
0
CIRCLE
5
307
100
AcDbEntity
8
0
100
AcDbCircle
10
-306.29521599999998
20
82.944179000000005
30
0
40
0.85000000000000009
210
-0
220
0
230
1
0
CIRCLE
5
308
100
AcDbEntity
8
0
100
AcDbCircle
10
-300.79521599999998
20
82.944179000000005
30
0
40
1.7000000000000002
210
-0
220
0
230
1
0
CIRCLE
5
309
100
AcDbEntity
8
0
100
AcDbCircle
10
-295.79521599999998
20
86.694179000000005
30
0
40
1.5000000000000002
210
-0
220
0
230
1
0
CIRCLE
5
310
100
AcDbEntity
8
0
100
AcDbCircle
10
-295.29521599999998
20
82.944179000000005
30
0
40
0.85000000000000009
210
-0
220
0
230
1
0
CIRCLE
5
311
100
AcDbEntity
8
0
100
AcDbCircle
10
-274.19162799999998
20
90.304286000000005
30
0
40
1.5000000000000002
210
-0
220
0
230
1
0
CIRCLE
5
312
100
AcDbEntity
8
0
100
AcDbCircle
10
-269.19162799999998
20
88.104286000000002
30
0
40
1.5000000000000002
210
-0
220
0
230
1
0
CIRCLE
5
313
100
AcDbEntity
8
0
100
AcDbCircle
10
-279.69162799999998
20
84.354286000000002
30
0
40
0.85000000000000009
210
-0
220
0
230
1
0
CIRCLE
5
314
100
AcDbEntity
8
0
100
AcDbCircle
10
-274.19162799999998
20
84.354286000000002
30
0
40
1.7000000000000002
210
-0
220
0
230
1
0
CIRCLE
5
315
100
AcDbEntity
8
0
100
AcDbCircle
10
-268.69162799999998
20
84.354286000000002
30
0
40
0.85000000000000009
210
-0
220
0
230
1
0
CIRCLE
5
316
100
AcDbEntity
8
0
100
AcDbCircle
10
-251.21580499999999
20
105.21113700000001
30
0
40
1.5000000000000002
210
-0
220
0
230
1
0
CIRCLE
5
317
100
AcDbEntity
8
0
100
AcDbCircle
10
-256.71580499999999
20
99.261137000000019
30
0
40
0.85000000000000009
210
-0
220
0
230
1
0
CIRCLE
5
318
100
AcDbEntity
8
0
100
AcDbCircle
10
-251.21580499999999
20
99.261137000000019
30
0
40
1.7000000000000002
210
-0
220
0
230
1
0
CIRCLE
5
319
100
AcDbEntity
8
0
100
AcDbCircle
10
-246.21580499999999
20
103.01113700000002
30
0
40
1.5000000000000002
210
-0
220
0
230
1
0
CIRCLE
5
320
100
AcDbEntity
8
0
100
AcDbCircle
10
-245.71580499999999
20
99.261137000000019
30
0
40
0.85000000000000009
210
-0
220
0
230
1
0
CIRCLE
5
321
100
AcDbEntity
8
0
100
AcDbCircle
10
-199.16358400000001
20
108.10000000000001
30
0
40
0.85000000000000009
210
-0
220
0
230
1
0
CIRCLE
5
322
100
AcDbEntity
8
0
100
AcDbCircle
10
-201.94958400000002
20
92.535000000000011
30
0
40
0.49530000000000007
210
-0
220
0
230
1
0
CIRCLE
5
323
100
AcDbEntity
8
0
100
AcDbCircle
10
-199.91758400000003
20
92.535000000000011
30
0
40
0.49530000000000007
210
-0
220
0
230
1
0
CIRCLE
5
324
100
AcDbEntity
8
0
100
AcDbCircle
10
-200.933584
20
87.454999999999998
30
0
40
0.49530000000000007
210
-0
220
0
230
1
0
CIRCLE
5
325
100
AcDbEntity
8
0
100
AcDbCircle
10
-323.36795600000005
20
74.390214999999998
30
0
40
1.5000000000000002
210
-0
220
0
230
1
0
CIRCLE
5
326
100
AcDbEntity
8
0
100
AcDbCircle
10
-318.36795600000005
20
72.190214999999995
30
0
40
1.5000000000000002
210
-0
220
0
230
1
0
CIRCLE
5
327
100
AcDbEntity
8
0
100
AcDbCircle
10
-328.86795599999999
20
68.440214999999995
30
0
40
0.85000000000000009
210
-0
220
0
230
1
0
CIRCLE
5
328
100
AcDbEntity
8
0
100
AcDbCircle
10
-323.36795600000005
20
68.440214999999995
30
0
40
1.7000000000000002
210
-0
220
0
230
1
0
CIRCLE
5
329
100
AcDbEntity
8
0
100
AcDbCircle
10
-317.86795599999999
20
68.440214999999995
30
0
40
0.85000000000000009
210
-0
220
0
230
1
0
CIRCLE
5
330
100
AcDbEntity
8
0
100
AcDbCircle
10
-285.33000000000004
20
70.519999999999996
30
0
40
1.1000000000000001
210
-0
220
0
230
1
0
CIRCLE
5
331
100
AcDbEntity
8
0
100
AcDbCircle
10
-302.26436899999999
20
57.360799
30
0
40
0.85000000000000009
210
-0
220
0
230
1
0
CIRCLE
5
332
100
AcDbEntity
8
0
100
AcDbCircle
10
-296.76436899999999
20
63.310799000000003
30
0
40
1.5000000000000002
210
-0
220
0
230
1
0
CIRCLE
5
333
100
AcDbEntity
8
0
100
AcDbCircle
10
-291.76436899999999
20
61.110799
30
0
40
1.5000000000000002
210
-0
220
0
230
1
0
CIRCLE
5
334
100
AcDbEntity
8
0
100
AcDbCircle
10
-270.36232400000006
20
64.519462000000004
30
0
40
1.5000000000000002
210
-0
220
0
230
1
0
CIRCLE
5
335
100
AcDbEntity
8
0
100
AcDbCircle
10
-265.36232400000006
20
62.319462000000001
30
0
40
1.5000000000000002
210
-0
220
0
230
1
0
CIRCLE
5
336
100
AcDbEntity
8
0
100
AcDbCircle
10
-275.862324
20
58.569462000000001
30
0
40
0.85000000000000009
210
-0
220
0
230
1
0
CIRCLE
5
337
100
AcDbEntity
8
0
100
AcDbCircle
10
-270.36232400000006
20
58.569462000000001
30
0
40
1.7000000000000002
210
-0
220
0
230
1
0
CIRCLE
5
338
100
AcDbEntity
8
0
100
AcDbCircle
10
-264.862324
20
58.569462000000001
30
0
40
0.85000000000000009
210
-0
220
0
230
1
0
CIRCLE
5
339
100
AcDbEntity
8
0
100
AcDbCircle
10
-296.76436899999999
20
57.360799
30
0
40
1.7000000000000002
210
-0
220
0
230
1
0
CIRCLE
5
340
100
AcDbEntity
8
0
100
AcDbCircle
10
-291.26436899999999
20
57.360799
30
0
40
0.85000000000000009
210
-0
220
0
230
1
0
CIRCLE
5
341
100
AcDbEntity
8
0
100
AcDbCircle
10
-247.38650000000004
20
79.627757000000003
30
0
40
1.5000000000000002
210
-0
220
0
230
1
0
CIRCLE
5
342
100
AcDbEntity
8
0
100
AcDbCircle
10
-242.38650000000004
20
77.427757
30
0
40
1.5000000000000002
210
-0
220
0
230
1
0
CIRCLE
5
343
100
AcDbEntity
8
0
100
AcDbCircle
10
-252.88650000000004
20
73.677757
30
0
40
0.85000000000000009
210
-0
220
0
230
1
0
CIRCLE
5
344
100
AcDbEntity
8
0
100
AcDbCircle
10
-247.38650000000004
20
73.677757
30
0
40
1.7000000000000002
210
-0
220
0
230
1
0
CIRCLE
5
345
100
AcDbEntity
8
0
100
AcDbCircle
10
-241.88650000000001
20
73.677757
30
0
40
0.85000000000000009
210
-0
220
0
230
1
0
CIRCLE
5
346
100
AcDbEntity
8
0
100
AcDbCircle
10
-194.93858399999999
20
80.045000000000002
30
0
40
0.17499999999999999
210
-0
220
0
230
1
0
CIRCLE
5
347
100
AcDbEntity
8
0
100
AcDbCircle
10
-194.93858399999999
20
78.769999999999996
30
0
40
0.17499999999999999
210
-0
220
0
230
1
0
CIRCLE
5
348
100
AcDbEntity
8
0
100
AcDbCircle
10
-194.93858399999999
20
77.495000000000005
30
0
40
0.17499999999999999
210
-0
220
0
230
1
0
CIRCLE
5
349
100
AcDbEntity
8
0
100
AcDbCircle
10
-197.26208400000002
20
56.234999999999999
30
0
40
0.32500000000000001
210
-0
220
0
230
1
0
CIRCLE
5
350
100
AcDbEntity
8
0
100
AcDbCircle
10
-196.46208400000003
20
55.585000000000008
30
0
40
0.20000000000000004
210
-0
220
0
230
1
0
CIRCLE
5
351
100
AcDbEntity
8
0
100
AcDbCircle
10
-194.86208400000004
20
55.585000000000008
30
0
40
0.20000000000000004
210
-0
220
0
230
1
0
LWPOLYLINE
5
352
100
AcDbEntity
8
0
100
AcDbPolyline
90
18
70
1
43
0.0
10
-197.48611400000001
20
54.589329000000006
10
-197.54030700000001
20
54.508223000000001
10
-197.62141299999999
20
54.454030000000003
10
-197.717084
20
54.435000000000002
10
-197.81275500000004
20
54.454030000000003
10
-197.89386100000002
20
54.508223000000001
10
-197.94805400000001
20
54.589329000000006
10
-197.967084
20
54.685000000000002
10
-197.967084
20
55.285000000000004
10
-197.94805400000001
20
55.380671
10
-197.89386100000002
20
55.461777000000005
10
-197.81275500000004
20
55.51597000000001
10
-197.717084
20
55.534999999999997
10
-197.62141299999999
20
55.51597000000001
10
-197.54030700000001
20
55.461777000000005
10
-197.48611400000001
20
55.380671
10
-197.46708400000003
20
55.285000000000004
10
-197.46708400000003
20
54.685000000000002
0
CIRCLE
5
353
100
AcDbEntity
8
0
100
AcDbCircle
10
-196.062084
20
54.885000000000005
30
0
40
0.20000000000000004
210
-0
220
0
230
1
0
CIRCLE
5
354
100
AcDbEntity
8
0
100
AcDbCircle
10
-195.26208400000002
20
54.885000000000005
30
0
40
0.20000000000000004
210
-0
220
0
230
1
0
CIRCLE
5
355
100
AcDbEntity
8
0
100
AcDbCircle
10
-194.46208400000003
20
54.885000000000005
30
0
40
0.20000000000000004
210
-0
220
0
230
1
0
CIRCLE
5
356
100
AcDbEntity
8
0
100
AcDbCircle
10
-211.79000000000002
20
53.829999999999998
30
0
40
1.1000000000000001
210
-0
220
0
230
1
0
LWPOLYLINE
5
357
100
AcDbEntity
8
0
100
AcDbPolyline
90
18
70
1
43
0.0
10
-197.92111399999999
20
50.199329000000006
10
-197.97530699999999
20
50.118223
10
-198.05641300000002
20
50.064030000000002
10
-198.15208400000003
20
50.045000000000002
10
-198.24775500000001
20
50.064030000000002
10
-198.32886099999999
20
50.118223
10
-198.38305399999999
20
50.199329000000006
10
-198.402084
20
50.295000000000002
10
-198.402084
20
50.89500000000001
10
-198.38305399999999
20
50.990670999999999
10
-198.32886099999999
20
51.071777000000004
10
-198.24775500000001
20
51.125970000000009
10
-198.15208400000003
20
51.145000000000003
10
-198.05641300000002
20
51.125970000000009
10
-197.97530699999999
20
51.071777000000004
10
-197.92111399999999
20
50.990670999999999
10
-197.902084
20
50.89500000000001
10
-197.902084
20
50.295000000000002
0
CIRCLE
5
358
100
AcDbEntity
8
0
100
AcDbCircle
10
-193.66358399999999
20
114.05000000000001
30
0
40
1.5000000000000002
210
-0
220
0
230
1
0
CIRCLE
5
359
100
AcDbEntity
8
0
100
AcDbCircle
10
-188.66358399999999
20
111.85000000000001
30
0
40
1.5000000000000002
210
-0
220
0
230
1
0
CIRCLE
5
360
100
AcDbEntity
8
0
100
AcDbCircle
10
-193.66358399999999
20
108.10000000000001
30
0
40
1.7000000000000002
210
-0
220
0
230
1
0
CIRCLE
5
361
100
AcDbEntity
8
0
100
AcDbCircle
10
-188.16358399999999
20
108.10000000000001
30
0
40
0.85000000000000009
210
-0
220
0
230
1
0
CIRCLE
5
362
100
AcDbEntity
8
0
100
AcDbCircle
10
-136.53822099999999
20
105.614025
30
0
40
1.5000000000000002
210
-0
220
0
230
1
0
CIRCLE
5
363
100
AcDbEntity
8
0
100
AcDbCircle
10
-131.53822099999999
20
103.41402500000001
30
0
40
1.5000000000000002
210
-0
220
0
230
1
0
CIRCLE
5
364
100
AcDbEntity
8
0
100
AcDbCircle
10
-142.03822099999999
20
99.664025000000009
30
0
40
0.85000000000000009
210
-0
220
0
230
1
0
CIRCLE
5
365
100
AcDbEntity
8
0
100
AcDbCircle
10
-136.53822099999999
20
99.664025000000009
30
0
40
1.7000000000000002
210
-0
220
0
230
1
0
CIRCLE
5
366
100
AcDbEntity
8
0
100
AcDbCircle
10
-131.03822099999999
20
99.664025000000009
30
0
40
0.85000000000000009
210
-0
220
0
230
1
0
CIRCLE
5
367
100
AcDbEntity
8
0
100
AcDbCircle
10
-119.22
20
111.77
30
0
40
1.1000000000000001
210
-0
220
0
230
1
0
CIRCLE
5
368
100
AcDbEntity
8
0
100
AcDbCircle
10
-61.564478000000008
20
100.779371
30
0
40
1.5000000000000002
210
-0
220
0
230
1
0
CIRCLE
5
369
100
AcDbEntity
8
0
100
AcDbCircle
10
-113.76394000000002
20
91.311505000000011
30
0
40
1.5000000000000002
210
-0
220
0
230
1
0
CIRCLE
5
370
100
AcDbEntity
8
0
100
AcDbCircle
10
-108.76394000000002
20
89.111504999999994
30
0
40
1.5000000000000002
210
-0
220
0
230
1
0
CIRCLE
5
371
100
AcDbEntity
8
0
100
AcDbCircle
10
-119.26394000000002
20
85.361504999999994
30
0
40
0.85000000000000009
210
-0
220
0
230
1
0
CIRCLE
5
372
100
AcDbEntity
8
0
100
AcDbCircle
10
-113.76394000000002
20
85.361504999999994
30
0
40
1.7000000000000002
210
-0
220
0
230
1
0
CIRCLE
5
373
100
AcDbEntity
8
0
100
AcDbCircle
10
-108.26394000000001
20
85.361504999999994
30
0
40
0.85000000000000009
210
-0
220
0
230
1
0
CIRCLE
5
374
100
AcDbEntity
8
0
100
AcDbCircle
10
-92.45881
20
83.347066000000012
30
0
40
0.85000000000000009
210
-0
220
0
230
1
0
CIRCLE
5
375
100
AcDbEntity
8
0
100
AcDbCircle
10
-56.564478000000008
20
98.579371000000009
30
0
40
1.5000000000000002
210
-0
220
0
230
1
0
CIRCLE
5
376
100
AcDbEntity
8
0
100
AcDbCircle
10
-67.064477999999994
20
94.829370999999995
30
0
40
0.85000000000000009
210
-0
220
0
230
1
0
CIRCLE
5
377
100
AcDbEntity
8
0
100
AcDbCircle
10
-61.564478000000008
20
94.829370999999995
30
0
40
1.7000000000000002
210
-0
220
0
230
1
0
CIRCLE
5
378
100
AcDbEntity
8
0
100
AcDbCircle
10
-56.064478000000008
20
94.829370999999995
30
0
40
0.85000000000000009
210
-0
220
0
230
1
0
CIRCLE
5
379
100
AcDbEntity
8
0
100
AcDbCircle
10
-86.95881
20
89.297066000000015
30
0
40
1.5000000000000002
210
-0
220
0
230
1
0
CIRCLE
5
380
100
AcDbEntity
8
0
100
AcDbCircle
10
-81.95881
20
87.097066000000012
30
0
40
1.5000000000000002
210
-0
220
0
230
1
0
CIRCLE
5
381
100
AcDbEntity
8
0
100
AcDbCircle
10
-86.95881
20
83.347066000000012
30
0
40
1.7000000000000002
210
-0
220
0
230
1
0
CIRCLE
5
382
100
AcDbEntity
8
0
100
AcDbCircle
10
-81.458810000000014
20
83.347066000000012
30
0
40
0.85000000000000009
210
-0
220
0
230
1
0
CIRCLE
5
383
100
AcDbEntity
8
0
100
AcDbCircle
10
-193.66358399999999
20
80.045000000000002
30
0
40
0.17499999999999999
210
-0
220
0
230
1
0
CIRCLE
5
384
100
AcDbEntity
8
0
100
AcDbCircle
10
-192.38858400000001
20
80.045000000000002
30
0
40
0.17499999999999999
210
-0
220
0
230
1
0
CIRCLE
5
385
100
AcDbEntity
8
0
100
AcDbCircle
10
-193.66358399999999
20
78.769999999999996
30
0
40
0.17499999999999999
210
-0
220
0
230
1
0
CIRCLE
5
386
100
AcDbEntity
8
0
100
AcDbCircle
10
-192.38858400000001
20
78.769999999999996
30
0
40
0.17499999999999999
210
-0
220
0
230
1
0
CIRCLE
5
387
100
AcDbEntity
8
0
100
AcDbCircle
10
-193.66358399999999
20
77.495000000000005
30
0
40
0.17499999999999999
210
-0
220
0
230
1
0
CIRCLE
5
388
100
AcDbEntity
8
0
100
AcDbCircle
10
-192.38858400000001
20
77.495000000000005
30
0
40
0.17499999999999999
210
-0
220
0
230
1
0
CIRCLE
5
389
100
AcDbEntity
8
0
100
AcDbCircle
10
-189.91208400000002
20
56.234999999999999
30
0
40
0.32500000000000001
210
-0
220
0
230
1
0
CIRCLE
5
390
100
AcDbEntity
8
0
100
AcDbCircle
10
-194.062084
20
55.585000000000008
30
0
40
0.20000000000000004
210
-0
220
0
230
1
0
CIRCLE
5
391
100
AcDbEntity
8
0
100
AcDbCircle
10
-193.26208399999999
20
55.585000000000008
30
0
40
0.20000000000000004
210
-0
220
0
230
1
0
CIRCLE
5
392
100
AcDbEntity
8
0
100
AcDbCircle
10
-192.462084
20
55.585000000000008
30
0
40
0.20000000000000004
210
-0
220
0
230
1
0
CIRCLE
5
393
100
AcDbEntity
8
0
100
AcDbCircle
10
-190.86208400000001
20
55.585000000000008
30
0
40
0.20000000000000004
210
-0
220
0
230
1
0
CIRCLE
5
394
100
AcDbEntity
8
0
100
AcDbCircle
10
-192.86208400000004
20
54.885000000000005
30
0
40
0.20000000000000004
210
-0
220
0
230
1
0
CIRCLE
5
395
100
AcDbEntity
8
0
100
AcDbCircle
10
-192.06208400000003
20
54.885000000000005
30
0
40
0.20000000000000004
210
-0
220
0
230
1
0
CIRCLE
5
396
100
AcDbEntity
8
0
100
AcDbCircle
10
-191.26208399999999
20
54.885000000000005
30
0
40
0.20000000000000004
210
-0
220
0
230
1
0
LWPOLYLINE
5
397
100
AcDbEntity
8
0
100
AcDbPolyline
90
18
70
1
43
0.0
10
-189.226114
20
54.589329000000006
10
-189.28030699999999
20
54.508223000000001
10
-189.361413
20
54.454030000000003
10
-189.45708400000001
20
54.435000000000002
10
-189.55275499999999
20
54.454030000000003
10
-189.63386100000002
20
54.508223000000001
10
-189.68805400000002
20
54.589329000000006
10
-189.70708400000004
20
54.685000000000002
10
-189.70708400000004
20
55.285000000000004
10
-189.68805400000002
20
55.380671
10
-189.63386100000002
20
55.461777000000005
10
-189.55275499999999
20
55.51597000000001
10
-189.45708400000001
20
55.534999999999997
10
-189.361413
20
55.51597000000001
10
-189.28030699999999
20
55.461777000000005
10
-189.226114
20
55.380671
10
-189.20708400000001
20
55.285000000000004
10
-189.20708400000001
20
54.685000000000002
0
LWPOLYLINE
5
398
100
AcDbEntity
8
0
100
AcDbPolyline
90
18
70
1
43
0.0
10
-188.941114
20
50.199329000000006
10
-188.995307
20
50.118223
10
-189.076413
20
50.064030000000002
10
-189.17208400000004
20
50.045000000000002
10
-189.26775500000002
20
50.064030000000002
10
-189.348861
20
50.118223
10
-189.403054
20
50.199329000000006
10
-189.42208400000001
20
50.295000000000002
10
-189.42208400000001
20
50.89500000000001
10
-189.403054
20
50.990670999999999
10
-189.348861
20
51.071777000000004
10
-189.26775500000002
20
51.125970000000009
10
-189.17208400000004
20
51.145000000000003
10
-189.076413
20
51.125970000000009
10
-188.995307
20
51.071777000000004
10
-188.941114
20
50.990670999999999
10
-188.92208400000001
20
50.89500000000001
10
-188.92208400000001
20
50.295000000000002
0
CIRCLE
5
399
100
AcDbEntity
8
0
100
AcDbCircle
10
-171.78999999999999
20
53.829999999999998
30
0
40
1.1000000000000001
210
-0
220
0
230
1
0
CIRCLE
5
400
100
AcDbEntity
8
0
100
AcDbCircle
10
-127.52717500000001
20
59.979570000000002
30
0
40
0.85000000000000009
210
-0
220
0
230
1
0
CIRCLE
5
401
100
AcDbEntity
8
0
100
AcDbCircle
10
-103.03
20
70.019999999999996
30
0
40
1.1000000000000001
210
-0
220
0
230
1
0
CIRCLE
5
402
100
AcDbEntity
8
0
100
AcDbCircle
10
-122.027175
20
65.929569999999998
30
0
40
1.5000000000000002
210
-0
220
0
230
1
0
CIRCLE
5
403
100
AcDbEntity
8
0
100
AcDbCircle
10
-117.027175
20
63.729570000000002
30
0
40
1.5000000000000002
210
-0
220
0
230
1
0
CIRCLE
5
404
100
AcDbEntity
8
0
100
AcDbCircle
10
-122.027175
20
59.979570000000002
30
0
40
1.7000000000000002
210
-0
220
0
230
1
0
CIRCLE
5
405
100
AcDbEntity
8
0
100
AcDbCircle
10
-116.52717500000001
20
59.979570000000002
30
0
40
0.85000000000000009
210
-0
220
0
230
1
0
ENDSEC
0
SECTION
2
OBJECTS
0
DICTIONARY
5
C
100
AcDbDictionary
3
ACAD_GROUP
350
D
3
ACAD_MLINESTYLE
350
17
0
DICTIONARY
5
D
100
AcDbDictionary
0
DICTIONARY
5
1A
330
C
100
AcDbDictionary
0
DICTIONARY
5
17
100
AcDbDictionary
0
ENDSEC
0
EOF
